<svg xmlns="http://www.w3.org/2000/svg" viewBox="0 0 500 500"><circle cx="250" cy="250" r="246" fill="#477f45"/><circle cx="250" cy="250" r="214" fill="none" stroke="#fff" stroke-width="5" opacity=".95"/><g fill="none" stroke="#fff" stroke-width="11" stroke-linecap="round" stroke-linejoin="round"><path d="M130 182c50-62 129-68 194-22 24 17 39 39 46 64"/><path d="M153 284c29 39 77 55 122 42 42-12 72-43 86-83"/><path d="M184 157c13 24 34 39 60 43 26 4 49-4 68-24"/><path d="M181 333c32 22 71 29 108 16 29-10 50-27 67-51"/><path d="M191 217c17-13 38-18 58-13 17 4 32 15 42 29"/><path d="M219 263c-8 27-1 53 20 69"/><path d="M293 219c-13 19-18 42-11 63 7 21 22 36 42 46"/><path d="M168 246c-21 0-38 9-51 26"/><path d="M332 176c19 4 35 14 47 30"/></g><text x="250" y="120" text-anchor="middle" fill="#fff" font-family="Arial,sans-serif" font-size="25" font-weight="700" letter-spacing="5">HEALTHY CHOICES</text><text x="250" y="245" text-anchor="middle" fill="#fff" font-family="Arial,sans-serif" font-size="86" font-weight="700">سلطة</text><text x="250" y="383" text-anchor="middle" fill="#fff" font-family="Arial,sans-serif" font-size="23" font-weight="600" letter-spacing="4">SALATA</text></svg>